HIERARCHY
ROOT Hips
{
	OFFSET 0.000000 0.000000 0.000000
	CHANNELS 6 Xposition Yposition Zposition Zrotation Yrotation Xrotation 
	JOINT LowerBack
	{
		OFFSET 0.000000 0.000000 0.000000
		CHANNELS 3 Zrotation Yrotation Xrotation
		JOINT Spine
		{
			OFFSET 0.028270 2.035590 -0.193380
			CHANNELS 3 Zrotation Yrotation Xrotation
			JOINT Spine1
			{
				OFFSET 0.056720 2.048850 -0.042750
				CHANNELS 3 Zrotation Yrotation Xrotation
				JOINT Neck
				{
					OFFSET 0.000000 0.000000 0.000000
					CHANNELS 3 Zrotation Yrotation Xrotation
					JOINT Neck1
					{
						OFFSET -0.054170 1.746240 0.172020
						CHANNELS 3 Zrotation Yrotation Xrotation
						JOINT Head
						{
							OFFSET 0.104070 1.761360 -0.123970
							CHANNELS 3 Zrotation Yrotation Xrotation
							End Site
							{
								OFFSET 0.000000 0.000000 0.000000
							}
						}
					}
				}
				JOINT LeftShoulder
				{
					OFFSET 0.000000 0.000000 0.000000
					CHANNELS 3 Zrotation Yrotation Xrotation
					JOINT LeftArm
					{
						OFFSET 3.362410 1.200890 -0.311210
						CHANNELS 3 Zrotation Yrotation Xrotation
						JOINT LeftForeArm
						{
							OFFSET 4.983000 -0.000000 -0.000000
							CHANNELS 3 Zrotation Yrotation Xrotation
							JOINT LeftHand
							{
								OFFSET 3.483560 -0.000000 -0.000000
								CHANNELS 3 Zrotation Yrotation Xrotation
								JOINT LeftFingerBase
								{
									OFFSET 0.000000 0.000000 0.000000
									CHANNELS 3 Zrotation Yrotation Xrotation
									JOINT LeftHandIndex1
									{
										OFFSET 0.715260 -0.000000 -0.000000
										CHANNELS 3 Zrotation Yrotation Xrotation
										End Site
										{
											OFFSET 0.000000 0.000000 0.000000
										}
									}
								}
								JOINT LThumb
								{
									OFFSET 0.000000 0.000000 0.000000
									CHANNELS 3 Zrotation Yrotation Xrotation
									End Site
									{
										OFFSET 0.000000 0.000000 0.000000
									}
								}
							}
						}
					}
				}
				JOINT RightShoulder
				{
					OFFSET 0.000000 0.000000 0.000000
					CHANNELS 3 Zrotation Yrotation Xrotation
					JOINT RightArm
					{
						OFFSET -3.136600 1.374050 -0.404650
						CHANNELS 3 Zrotation Yrotation Xrotation
						JOINT RightForeArm
						{
							OFFSET -5.241900 -0.000000 -0.000000
							CHANNELS 3 Zrotation Yrotation Xrotation
							JOINT RightHand
							{
								OFFSET -3.444170 -0.000000 -0.000000
								CHANNELS 3 Zrotation Yrotation Xrotation
								JOINT RightFingerBase
								{
									OFFSET 0.000000 0.000000 0.000000
									CHANNELS 3 Zrotation Yrotation Xrotation
									JOINT RightHandIndex1
									{
										OFFSET -0.622530 -0.000000 -0.000000
										CHANNELS 3 Zrotation Yrotation Xrotation
										End Site
										{
											OFFSET 0.000000 0.000000 0.000000
										}
									}
								}
								JOINT RThumb
								{
									OFFSET 0.000000 0.000000 0.000000
									CHANNELS 3 Zrotation Yrotation Xrotation
									End Site
									{
										OFFSET 0.000000 0.000000 0.000000
									}
								}
							}
						}
					}
				}
			}
		}
	}
}
}
MOTION
Frames: 17
Frame Time: 0.008333
9.182433 15.952031 1.697252 -30.686483 -87.775255 52.414802 7.202950 -4.612132 -6.936726 1.281062 -5.396239 -4.288901 -5.417428 -5.538425 0.591160 6.164474 -10.002423 -6.997848 -2.761294 -0.218244 0.224980 0.000000 0.000000 0.000000 -2.280796 -1.638398 1.680107 -40.961135 -31.166421 8.478946 -1.097809 -66.642776 -0.069698 9.979273 -1.698006 -0.189379 -0.177717 0.458193 -0.000000 0.000000 0.000000 0.000000 0.000000 0.000000 0.000000 9.169020 -10.170587 2.616109 39.937425 -10.330703 -24.790217 4.070140 -1.597776 0.000066 -6.140693 3.266027 -0.186470 0.193799 -0.101504 -0.000000 0.000000 0.000000 0.000000 0.000000 0.000000 0.000000 
8.847471 15.942932 1.680711 -42.818963 -87.678087 64.540188 7.892465 -4.561594 -7.036003 1.434875 -5.414201 -4.324468 -5.428449 -5.562176 0.564981 6.031008 -9.745435 -7.049957 -2.788800 -0.219749 0.209165 0.000000 0.000000 0.000000 -2.788571 -1.362514 1.758723 -40.892709 -30.427306 8.667928 -1.136976 -66.925878 -0.070729 10.247180 -1.716065 -0.195834 -0.185081 0.454180 -0.000000 0.000000 0.000000 0.000000 0.000000 0.000000 0.000000 9.082515 -9.871502 2.621753 39.644963 -10.137909 -24.387894 4.085302 -1.778913 -0.000319 -6.364497 3.239341 -0.191474 0.193984 -0.100607 -0.000000 0.000000 0.000000 0.000000 0.000000 0.000000 0.000000 
8.518360 15.940925 1.661608 -52.062898 -87.450538 73.738021 8.535893 -4.527218 -7.067332 1.574341 -5.443557 -4.344996 -5.460434 -5.596289 0.530204 5.950953 -9.437001 -7.096401 -2.825064 -0.221876 0.193825 0.000000 0.000000 0.000000 -3.253371 -1.120926 1.845160 -40.938190 -29.639125 8.959306 -1.180090 -67.064682 -0.071515 10.531748 -1.743781 -0.203489 -0.192883 0.448617 -0.000000 0.000000 0.000000 0.000000 0.000000 0.000000 0.000000 9.074534 -9.530469 2.632714 39.537941 -9.876200 -24.030169 4.094670 -1.953607 -0.000823 -6.607689 3.193348 -0.195780 0.193677 -0.099714 -0.000000 0.000000 0.000000 0.000000 0.000000 0.000000 0.000000 
8.196027 15.946908 1.640423 -59.163602 -87.161748 80.761563 9.126477 -4.492939 -7.035035 1.694560 -5.465890 -4.351590 -5.511225 -5.621554 0.491691 5.918509 -9.085336 -7.137711 -2.868358 -0.224478 0.178959 0.000000 0.000000 0.000000 -3.675859 -0.893775 1.934817 -41.117306 -28.838597 9.358895 -1.228167 -67.015022 -0.071902 10.817003 -1.775592 -0.211449 -0.200705 0.441262 -0.000000 0.000000 0.000000 0.000000 0.000000 0.000000 0.000000 9.134563 -9.146228 2.649624 39.636365 -9.553311 -23.706598 4.099834 -2.087988 -0.001481 -6.869445 3.115444 -0.198486 0.193002 -0.098825 -0.000000 0.000000 0.000000 0.000000 0.000000 0.000000 0.000000 
7.880989 15.961588 1.616951 -64.648896 -86.860702 86.148429 9.635984 -4.452831 -6.951138 1.789449 -5.472568 -4.346127 -5.577194 -5.629311 0.453647 5.930461 -8.700934 -7.171281 -2.917117 -0.227475 0.165595 0.000000 0.000000 0.000000 -4.044236 -0.678383 2.022886 -41.453517 -28.040706 9.865432 -1.281929 -66.742520 -0.071708 11.081561 -1.804724 -0.218618 -0.208039 0.431884 -0.000000 0.000000 0.000000 0.000000 0.000000 0.000000 0.000000 9.256142 -8.726481 2.670822 39.953360 -9.170559 -23.436308 4.100616 -2.174577 -0.002245 -7.143013 3.017528 -0.199792 0.192015 -0.098042 -0.000000 0.000000 0.000000 0.000000 0.000000 0.000000 0.000000 
7.573517 15.985517 1.590704 -68.935368 -86.589726 90.319228 10.029192 -4.405497 -6.827786 1.852504 -5.459458 -4.330886 -5.654472 -5.615669 0.416898 5.984049 -8.291525 -7.190460 -2.970342 -0.230890 0.155968 0.000000 0.000000 0.000000 -4.340448 -0.490137 2.104658 -41.968241 -27.230939 10.464898 -1.341573 -66.228508 -0.070759 11.301330 -1.823575 -0.223800 -0.214285 0.420276 -0.000000 0.000000 0.000000 0.000000 0.000000 0.000000 0.000000 9.434751 -8.279330 2.693870 40.495261 -8.728139 -23.261682 4.095685 -2.225586 -0.003004 -7.415997 2.933500 -0.201595 0.190713 -0.097572 -0.000000 0.000000 0.000000 0.000000 0.000000 0.000000 0.000000 
7.273460 16.019106 1.562121 -72.403235 -86.356614 93.655055 10.308340 -4.347804 -6.673724 1.885519 -5.424155 -4.307068 -5.739811 -5.578578 0.385075 6.071061 -7.868137 -7.193157 -3.026906 -0.234677 0.150825 0.000000 0.000000 0.000000 -4.570166 -0.321324 2.178421 -42.668181 -26.429031 11.145004 -1.409434 -65.444233 -0.068957 11.455623 -1.828317 -0.225999 -0.219034 0.406461 -0.000000 0.000000 0.000000 0.000000 0.000000 0.000000 0.000000 9.660687 -7.815556 2.715464 41.257110 -8.224975 -23.165944 4.086370 -2.227590 -0.003674 -7.674814 2.880005 -0.204698 0.189180 -0.097371 -0.000000 0.000000 0.000000 0.000000 0.000000 0.000000 0.000000 
6.980155 16.062580 1.531328 -75.288888 -86.170187 96.394292 10.471140 -4.278039 -6.497818 1.888978 -5.365481 -4.275731 -5.831848 -5.517112 0.361702 6.188170 -7.444220 -7.178596 -3.086716 -0.238852 0.150535 0.000000 0.000000 0.000000 -4.738534 -0.164554 2.242647 -43.548199 -25.647236 11.888061 -1.487678 -64.371603 -0.066263 11.528334 -1.817271 -0.224816 -0.221993 0.390515 -0.000000 0.000000 0.000000 0.000000 0.000000 0.000000 0.000000 9.934432 -7.349487 2.731371 42.224000 -7.659355 -23.098770 4.075236 -2.158047 -0.004168 -7.903278 2.866525 -0.209697 0.187504 -0.097261 -0.000000 0.000000 0.000000 0.000000 0.000000 0.000000 0.000000 
6.692845 16.115990 1.498634 -77.762281 -86.029832 98.706603 10.525571 -4.194704 -6.307861 1.865539 -5.283331 -4.238668 -5.929376 -5.431496 0.347089 6.330691 -7.027945 -7.144435 -3.150062 -0.243486 0.155856 0.000000 0.000000 0.000000 -4.853950 -0.020086 2.296142 -44.596441 -24.879576 12.665644 -1.577898 -63.009039 -0.062703 11.508789 -1.792054 -0.220053 -0.222932 0.372616 -0.000000 0.000000 0.000000 0.000000 0.000000 0.000000 0.000000 10.254413 -6.890837 2.737775 43.372292 -7.027487 -23.039803 4.063452 -2.016278 -0.004381 -8.082008 2.915210 -0.217792 0.185667 -0.097196 -0.000000 0.000000 0.000000 0.000000 0.000000 0.000000 0.000000 
6.410478 16.179031 1.464539 -79.921902 -85.923480 100.694326 10.494140 -4.096478 -6.114983 1.821009 -5.179255 -4.197913 -6.031499 -5.323528 0.343874 6.493127 -6.631467 -7.092946 -3.216922 -0.248568 0.166187 0.000000 0.000000 0.000000 -4.936209 0.126223 2.338422 -45.787378 -24.132953 13.451749 -1.681710 -61.360022 -0.058402 11.396089 -1.756585 -0.212308 -0.221844 0.353051 -0.000000 0.000000 0.000000 0.000000 0.000000 0.000000 0.000000 10.617369 -6.453998 2.730232 44.667918 -6.308083 -22.987300 4.051256 -1.822092 -0.004198 -8.191893 3.056329 -0.230980 0.183581 -0.097212 -0.000000 0.000000 0.000000 0.000000 0.000000 0.000000 0.000000 
6.135146 16.249961 1.417931 -92.138709 -85.855790 112.588042 10.132458 -3.816566 -5.707419 1.692759 -4.860728 -4.100529 -6.167656 -4.998016 0.337648 6.776836 -6.259674 -7.018294 -3.291703 -0.254234 0.179786 0.000000 0.000000 0.000000 -4.820380 0.316659 2.342442 -47.041865 -23.319063 14.200905 -1.769302 -59.477265 -0.052844 11.195762 -1.721649 -0.202692 -0.219605 0.328740 -0.000000 0.000000 0.000000 0.000000 0.000000 0.000000 0.000000 11.171790 -5.942493 2.732290 46.128784 -5.506110 -22.810896 4.043508 -1.522504 -0.003789 -8.215578 3.257132 -0.246363 0.181901 -0.098150 -0.000000 0.000000 0.000000 0.000000 0.000000 0.000000 0.000000 
5.859267 16.330317 1.381805 -94.005215 -85.761326 114.277445 9.979598 -3.679913 -5.533581 1.617618 -4.710366 -4.060689 -6.282016 -4.844031 0.351280 6.978082 -5.910708 -6.934385 -3.369431 -0.260545 0.199433 0.000000 0.000000 0.000000 -4.866114 0.472411 2.361186 -48.433462 -22.564235 14.900440 -1.900021 -57.328703 -0.047634 10.924466 -1.688092 -0.192377 -0.214619 0.306941 -0.000000 0.000000 0.000000 0.000000 0.000000 0.000000 0.000000 11.633767 -5.555096 2.691276 47.623496 -4.630563 -22.606153 4.035221 -1.174049 -0.002758 -8.143272 3.571431 -0.267041 0.178928 -0.097803 -0.000000 0.000000 0.000000 0.000000 0.000000 0.000000 0.000000 
5.585188 16.417533 1.345078 -95.615643 -85.682467 115.720125 9.784210 -3.530929 -5.384933 1.532072 -4.546348 -4.024760 -6.402139 -4.676643 0.372024 7.199162 -5.588033 -6.839793 -3.453421 -0.267488 0.222216 0.000000 0.000000 0.000000 -4.905335 0.643514 2.369443 -49.878585 -21.797412 15.517485 -2.040607 -54.971482 -0.042302 10.603961 -1.667920 -0.182676 -0.208233 0.284655 -0.000000 0.000000 0.000000 0.000000 0.000000 0.000000 0.000000 12.149571 -5.196641 2.631699 49.176911 -3.709061 -22.158165 4.034154 -0.671298 -0.001434 -7.975412 3.911840 -0.285714 0.175628 -0.096737 -0.000000 0.000000 0.000000 0.000000 0.000000 0.000000 0.000000 
5.312091 16.510119 1.307874 -96.918545 -85.618378 116.872096 9.558018 -3.374833 -5.270456 1.440075 -4.375192 -3.995839 -6.523675 -4.502658 0.395269 7.430661 -5.284560 -6.733273 -3.541731 -0.274946 0.248510 0.000000 0.000000 0.000000 -4.946939 0.815174 2.367678 -51.342041 -20.972176 16.012173 -2.184902 -52.462221 -0.037059 10.254180 -1.661908 -0.174085 -0.200515 0.262211 -0.000000 0.000000 0.000000 0.000000 0.000000 0.000000 0.000000 12.698265 -4.864864 2.554908 50.760762 -2.695502 -21.712642 4.030684 -0.168546 0.000313 -7.699573 4.379913 -0.307982 0.171530 -0.096010 -0.000000 0.000000 0.000000 0.000000 0.000000 0.000000 0.000000 
5.039313 16.606452 1.270092 -97.874538 -85.575004 117.701998 9.299292 -3.215200 -5.194082 1.341065 -4.200501 -3.974094 -6.648582 -4.325576 0.422541 7.680196 -4.999434 -6.624291 -3.635174 -0.282881 0.275570 0.000000 0.000000 0.000000 -4.987426 1.013622 2.359370 -52.795917 -20.122560 16.388121 -2.331165 -49.813809 -0.032086 9.903530 -1.676069 -0.167402 -0.192052 0.240001 0.000000 0.000000 0.000000 0.000000 0.000000 0.000000 0.000000 13.292497 -4.551967 2.462042 52.368037 -1.666713 -20.950494 4.032134 0.521917 0.002122 -7.346139 4.823206 -0.322946 0.167044 -0.094437 -0.000000 0.000000 0.000000 0.000000 0.000000 0.000000 0.000000 
4.766485 16.704807 1.231686 -98.443961 -85.558951 118.171745 9.009626 -3.058404 -5.158511 1.237019 -4.028478 -3.962185 -6.770458 -4.151973 0.444899 7.934534 -4.719427 -6.506975 -3.730660 -0.291142 0.305118 0.000000 0.000000 0.000000 -5.024551 1.197386 2.346037 -54.214256 -19.176165 16.598725 -2.470609 -47.096128 -0.027503 9.562511 -1.700091 -0.161824 -0.182647 0.218233 0.000000 0.000000 0.000000 0.000000 0.000000 0.000000 0.000000 13.900823 -4.248523 2.358554 53.987786 -0.580882 -20.167805 4.027966 1.226447 0.004088 -6.906264 5.346472 -0.336006 0.161724 -0.093279 -0.000000 0.000000 0.000000 0.000000 0.000000 0.000000 0.000000 
4.493481 16.803394 1.192453 -98.616082 -85.582300 118.270520 8.678903 -2.909034 -5.159882 1.126073 -3.862378 -3.957883 -6.889215 -3.984908 0.466431 8.197275 -4.448072 -6.392357 -3.827094 -0.299523 0.333948 0.000000 0.000000 0.000000 -5.053614 1.399011 2.332203 -55.575222 -18.188780 16.669167 -2.603100 -44.308745 -0.023393 9.249367 -1.730411 -0.157250 -0.172858 0.197171 0.000000 0.000000 0.000000 0.000000 0.000000 0.000000 0.000000 14.525910 -3.949965 2.245839 55.621599 0.505689 -19.112150 4.020604 2.093784 0.005888 -6.422233 5.821861 -0.339966 0.155968 -0.091666 -0.000000 0.000000 0.000000 0.000000 0.000000 0.000000 0.000000 
